<svg width="48" height="48" viewBox="0 0 48 48" fill="none" xmlns="http://www.w3.org/2000/svg">
<circle cx="24" cy="24" r="24" fill="#9B51E0"/>
<path d="M36.7562 20.6288H34.8004C34.6514 20.6288 34.5083 20.6857 34.4007 20.7876L33.9833 21.1829C33.2795 19.5734 32.27 17.9819 30.9063 16.3342C30.1692 15.4439 29.0791 14.9333 27.9154 14.9333H20.0852C18.9213 14.9333 17.8312 15.444 17.0945 16.3343C15.6878 18.0338 14.6983 19.587 14.0113 21.1772L13.6 20.7876C13.4924 20.6857 13.3492 20.6288 13.2003 20.6288H11.2446C10.9256 20.6288 10.667 20.8844 10.667 21.1998V22.5214C10.667 22.8227 10.904 23.0721 11.2083 23.0911L13.2185 23.2163C12.9148 24.0935 12.6776 25.4007 12.6776 27.2442C12.6776 28.8438 13.0008 29.8952 13.5634 30.5758V33.6553C13.5634 33.9193 13.78 34.1334 14.0472 34.1334H16.2723C16.5396 34.1334 16.7562 33.9193 16.7562 33.6553V31.743H31.2445V33.6553C31.2445 33.9193 31.4612 34.1334 31.7283 34.1334H33.9534C34.2206 34.1334 34.4372 33.9193 34.4372 33.6553V30.5758C34.9997 29.8952 35.3231 28.8438 35.3231 27.2442C35.3231 25.4007 35.086 24.0935 34.7822 23.2163L36.7924 23.0911C37.0966 23.0721 37.3337 22.8227 37.3337 22.5214V21.1998C37.3337 20.8844 37.0752 20.6288 36.7562 20.6288ZM18.7454 17.6691C19.0755 17.2702 19.5639 17.0414 20.0852 17.0414H27.9154C28.4367 17.0414 28.9252 17.2702 29.2553 17.6691C30.2093 18.8217 30.9627 19.9248 31.545 21.0236L16.4423 21.0264C17.0119 19.952 17.7695 18.848 18.7454 17.6691ZM17.0996 29.4044C15.9921 29.4044 15.0943 29.0469 15.0943 28.1795C15.0943 27.3122 15.4201 26.609 16.5275 26.609C17.635 26.609 19.1047 27.3122 19.1047 28.1795C19.1047 29.0468 18.2069 29.4044 17.0996 29.4044ZM26.1023 29.2236H21.8985C21.2647 29.2236 20.7491 28.7141 20.7491 28.0877C20.7491 27.912 20.8933 27.7696 21.0711 27.7696H26.9298C27.1076 27.7696 27.2516 27.912 27.2516 28.0877C27.2516 28.7141 26.736 29.2236 26.1023 29.2236ZM30.9011 29.4044C29.7937 29.4044 28.8959 29.0469 28.8959 28.1795C28.8959 27.3122 30.3658 26.609 31.4731 26.609C32.5805 26.609 32.9063 27.3122 32.9063 28.1795C32.9063 29.0468 32.0086 29.4044 30.9011 29.4044Z" fill="white"/>
</svg>
